<svg width="61" height="10" viewBox="0 0 61 10" fill="none" xmlns="http://www.w3.org/2000/svg">
<path d="M7.0865 0.160005C5.12842 0.159005 3.08544 0.594005 1.02344 1.15826C0.761604 1.21026 0.506104 1.37926 0.371003 1.58826C0.246802 1.78526 0.201684 1.98301 0.162903 2.19026C-0.0373405 3.29726 -0.0130072 4.38425 0.0285623 5.58875C0.0376873 5.8645 0.0792567 6.19125 0.209795 6.39C0.346163 6.59075 0.579864 6.71825 0.858937 6.76C1.21547 6.81158 1.57313 6.85534 1.93163 6.89125L1.85255 9.06575C1.84038 9.23875 1.92606 9.3825 2.03251 9.46525C2.12782 9.53675 2.23402 9.5685 2.34302 9.5765C2.561 9.59275 2.81676 9.50075 2.94375 9.26225C3.50012 8.20625 3.84915 7.74 4.54493 7.0385C6.35928 7.0825 7.94323 6.983 9.73655 6.85225C10.3705 6.836 10.8057 6.32475 10.9208 5.9165C11.2647 4.8585 11.3182 3.55251 11.3547 2.23226C11.3702 1.70901 11.1862 1.19526 10.8604 0.923755C10.5507 0.676005 10.1756 0.586255 9.83185 0.494255C8.87702 0.281005 7.92194 0.166505 7.0865 0.160005ZM9.69473 0.987505C10.0389 1.07976 10.3423 1.16851 10.5337 1.32176C10.8531 1.65651 10.8424 1.87926 10.8379 2.24051C10.8019 3.52101 10.7395 4.76375 10.4465 5.7055C10.3203 6.05675 10.1003 6.30675 9.68459 6.3445C7.85756 6.47775 6.27234 6.58075 4.43594 6.52925C4.40018 6.52813 4.36457 6.53424 4.3313 6.54723C4.29804 6.56022 4.26783 6.57979 4.24254 6.60475C3.47097 7.37325 3.07631 7.90725 2.48826 9.02375C2.47457 9.04925 2.44491 9.06475 2.40841 9.0675C2.38383 9.06625 2.37394 9.0475 2.37242 9.0305L2.45201 6.6725C2.45683 6.54525 2.35037 6.42375 2.22211 6.41C1.79327 6.36961 1.36559 6.31792 0.939541 6.255C0.755521 6.22725 0.68759 6.1775 0.637149 6.1035C0.549448 5.89725 0.551475 5.76975 0.544632 5.5715C0.503569 4.37775 0.483291 3.33451 0.669087 2.29651C0.686323 2.14301 0.744621 1.98601 0.806468 1.85476C0.908871 1.69676 1.06577 1.67351 1.22318 1.63051C3.2398 1.08126 5.21283 0.670505 7.07027 0.669255C7.98075 0.701755 8.93684 0.791755 9.69473 0.987505V0.987505ZM2.72956 3.01001C2.45176 3.33826 2.47939 3.78401 2.69408 4.0825C2.80611 4.23875 2.98101 4.3645 3.19392 4.393C3.47046 4.4155 3.64586 4.305 3.83521 4.178C4.17816 3.884 4.21288 3.37101 3.95206 3.00051C3.81924 2.81176 3.60683 2.69851 3.38986 2.69051C3.09279 2.69351 2.89102 2.82426 2.72956 3.00976V3.01001ZM5.73473 2.74201C5.45794 2.75076 5.23412 2.93976 5.0975 3.14376C4.94111 3.37701 4.84986 3.669 4.97634 3.95525C5.21967 4.506 6.06044 4.49925 6.39578 3.9395C6.5504 3.6815 6.51086 3.38826 6.39578 3.17551C6.28121 2.96301 6.10784 2.78976 5.85564 2.75001C5.81569 2.74353 5.7752 2.74085 5.73473 2.74201V2.74201ZM8.1744 2.79375C8.08822 2.79175 7.9995 2.79975 7.91636 2.8215C7.58381 2.909 7.30068 3.2475 7.34352 3.68075C7.36532 3.89875 7.46696 4.11125 7.65022 4.25775C7.83348 4.404 8.09962 4.4695 8.38022 4.41275C8.70263 4.34775 8.90237 4.0915 8.96903 3.844C9.0357 3.5965 9.01897 3.34426 8.8641 3.13976C8.78351 3.03407 8.6795 2.94795 8.56001 2.88799C8.44052 2.82802 8.30871 2.79579 8.17465 2.79375H8.1744ZM3.3673 3.1995C3.4294 3.2 3.47832 3.21951 3.52876 3.291C3.64156 3.4515 3.61012 3.69475 3.49632 3.79225C3.38301 3.88975 3.31229 3.89825 3.26261 3.89175C3.21293 3.885 3.16249 3.85126 3.11737 3.78826C3.03119 3.66826 3.00585 3.47425 3.11915 3.33575C3.17948 3.25675 3.29024 3.2075 3.36755 3.1995H3.3673ZM5.77098 3.25526C5.78061 3.25676 5.88859 3.31851 5.94029 3.41425C5.992 3.51 6.00164 3.599 5.95246 3.68075C5.80621 3.92475 5.4952 3.85875 5.44805 3.7525C5.43031 3.712 5.44374 3.54925 5.52916 3.4225C5.61408 3.29526 5.72104 3.2475 5.77098 3.255V3.25526ZM8.44866 3.44226C8.46437 3.46301 8.50265 3.60226 8.47299 3.71276C8.44308 3.82326 8.39441 3.8915 8.27528 3.9155C8.12269 3.9465 8.03702 3.91551 7.97289 3.86376C7.90851 3.81251 7.86516 3.72575 7.85578 3.633C7.83297 3.403 7.91662 3.34976 8.04944 3.31476C8.20406 3.27726 8.37895 3.34276 8.44866 3.44226V3.44226Z" fill="white"/>
<path d="M14.5996 1.18925C14.6037 1.12425 14.6277 1.06575 14.6724 1.014C14.6941 0.98863 14.7214 0.968467 14.7521 0.95504C14.7829 0.941612 14.8164 0.935272 14.85 0.9365H16.5802C16.6385 0.9365 16.6986 0.9605 16.7607 1.00825C16.7898 1.02886 16.8135 1.05605 16.8297 1.08755C16.8459 1.11904 16.8543 1.15392 16.854 1.18925V3.9125H19.7489V1.18925C19.7489 1.12025 19.7732 1.061 19.8216 1.01125C19.8703 0.96125 19.9332 0.93625 20.011 0.93625H21.7179C21.7954 0.93625 21.8634 0.9555 21.9217 0.99375C21.98 1.03225 22.0091 1.0935 22.0091 1.17775V9.21525C22.0091 9.2995 21.9838 9.36275 21.9331 9.40475C21.8829 9.447 21.8167 9.468 21.7354 9.468H20.011C19.9334 9.468 19.8703 9.447 19.8216 9.40475C19.7732 9.36275 19.7489 9.29975 19.7489 9.21525V5.952H16.854V9.21525C16.854 9.29575 16.8276 9.35775 16.7754 9.402C16.7229 9.446 16.652 9.468 16.5625 9.468H14.85C14.6871 9.468 14.6037 9.39325 14.5996 9.244V1.18925ZM30.5367 9.3705C30.4862 9.4125 30.4328 9.43925 30.3765 9.45075C30.3239 9.46193 30.2703 9.46779 30.2165 9.46825H29.337C29.267 9.46825 29.2067 9.45575 29.1563 9.43075C29.1056 9.40575 29.063 9.37225 29.028 9.33025C28.9922 9.28662 28.9629 9.23823 28.9408 9.1865C28.9173 9.13246 28.8979 9.07682 28.8825 9.02L28.702 8.2845C28.6437 8.40325 28.5593 8.53825 28.4486 8.6895C28.3287 8.85002 28.1866 8.99309 28.0263 9.1145C27.8554 9.247 27.6514 9.358 27.4147 9.448C27.1777 9.538 26.9059 9.583 26.599 9.583C26.1564 9.583 25.7544 9.49875 25.3932 9.33025C25.0396 9.16729 24.725 8.9323 24.4701 8.64075C24.2158 8.34975 24.0186 8.00975 23.879 7.62075C23.7391 7.23225 23.6691 6.8175 23.6691 6.37725V2.614C23.6691 2.4685 23.7013 2.3585 23.7654 2.28375C23.8293 2.209 23.9312 2.17175 24.0711 2.17175H25.4165C25.5838 2.17175 25.6981 2.19925 25.7602 2.255C25.8223 2.3105 25.8535 2.41875 25.8535 2.5795V6.3195C25.8535 6.4845 25.8915 6.6405 25.9671 6.788C26.0429 6.9355 26.1427 7.0655 26.2672 7.1785C26.3914 7.2915 26.5321 7.38075 26.6895 7.44575C26.8466 7.51075 27.0068 7.54325 27.1701 7.54325C27.3097 7.54325 27.4545 7.51075 27.604 7.44575C27.7545 7.37992 27.894 7.29173 28.0174 7.18425C28.1436 7.07525 28.2476 6.94675 28.3292 6.79925C28.4108 6.65175 28.4514 6.49575 28.4514 6.33125V2.59675C28.4514 2.53175 28.464 2.46675 28.4894 2.4015C28.5147 2.3365 28.5525 2.2865 28.6029 2.252C28.6534 2.2215 28.701 2.2005 28.7456 2.189C28.7903 2.1775 28.842 2.1715 28.9 2.1715H30.2165C30.3833 2.1715 30.5037 2.212 30.5775 2.29225C30.6512 2.37275 30.6883 2.48 30.6883 2.614V9.043C30.6883 9.1155 30.6718 9.18275 30.6388 9.244C30.6059 9.30525 30.5603 9.35325 30.502 9.3875L30.5367 9.3705V9.3705ZM37.2996 8.5775C37.1946 8.681 37.079 8.792 36.9531 8.91075C36.8268 9.0295 36.6879 9.14075 36.5366 9.244C36.3843 9.34791 36.2201 9.43375 36.0474 9.49975C35.867 9.5678 35.6753 9.60188 35.4822 9.60025C34.9542 9.60025 34.4678 9.50275 34.0229 9.30725C33.5893 9.11958 33.1989 8.84689 32.8755 8.50575C32.5551 8.16675 32.3046 7.7675 32.1242 7.30775C31.9434 6.84825 31.8532 6.35425 31.8532 5.8255C31.8532 5.293 31.9434 4.798 32.1242 4.3405C32.3046 3.883 32.5551 3.4845 32.8755 3.1455C33.1985 2.80469 33.5891 2.53291 34.0229 2.347C34.4678 2.1535 34.9542 2.05675 35.4822 2.05675C35.6959 2.05675 35.891 2.0875 36.0677 2.14875C36.2382 2.207 36.4006 2.28612 36.5511 2.38425C36.6968 2.48 36.8306 2.58825 36.9531 2.70875C37.0752 2.8295 37.1908 2.94725 37.2996 3.06225V0.4365C37.2996 0.314 37.3376 0.21075 37.4131 0.1265C37.4889 0.042 37.6025 0 37.754 0H39.0645C39.1152 0 39.1684 0.0105 39.2247 0.0315C39.281 0.05275 39.3324 0.08225 39.3793 0.12075C39.4257 0.159 39.4635 0.205 39.4926 0.2585C39.5218 0.31225 39.5365 0.3715 39.5365 0.4365V9.02575C39.5365 9.32075 39.3793 9.46825 39.0645 9.46825H37.9229C37.8453 9.46825 37.785 9.45825 37.7424 9.43925C37.7001 9.42053 37.663 9.39196 37.6344 9.356C37.602 9.31384 37.5755 9.26749 37.5558 9.21825C37.5284 9.15339 37.4993 9.0892 37.4686 9.02575L37.2996 8.5775V8.5775ZM33.9502 5.8255C33.9482 6.0671 33.9886 6.30722 34.0696 6.53525C34.1492 6.75525 34.2627 6.946 34.4105 7.10675C34.5597 7.26877 34.741 7.3988 34.9433 7.48875C35.1511 7.58275 35.3813 7.6295 35.6338 7.6295C35.8822 7.6295 36.1161 7.5855 36.3356 7.4975C36.5488 7.41328 36.7435 7.28935 36.9092 7.1325C37.0738 6.97542 37.2073 6.7894 37.3026 6.584C37.4015 6.37325 37.457 6.14725 37.4686 5.906V5.8255C37.4695 5.58508 37.422 5.34689 37.3287 5.12475C37.2384 4.90698 37.107 4.70812 36.9414 4.53875C36.7754 4.36958 36.5776 4.23397 36.3589 4.1395C36.1304 4.04076 35.8833 3.99083 35.6338 3.993C35.3813 3.993 35.1511 4.04175 34.9433 4.1395C34.7354 4.237 34.558 4.37025 34.4105 4.53875C34.2606 4.71124 34.1449 4.91004 34.0696 5.12475C33.9896 5.3499 33.9493 5.58692 33.9504 5.8255H33.9502ZM46.2994 8.5775C46.1944 8.681 46.0788 8.792 45.9526 8.91075C45.8264 9.0295 45.6875 9.14075 45.5362 9.244C45.3838 9.34791 45.2196 9.43375 45.047 9.49975C44.8666 9.5678 44.6748 9.60188 44.4817 9.60025C43.9537 9.60025 43.4673 9.50275 43.0227 9.30725C42.589 9.11961 42.1985 8.84692 41.875 8.50575C41.5549 8.16675 41.3042 7.7675 41.1237 7.30775C40.9432 6.84825 40.8527 6.35425 40.8527 5.8255C40.8527 5.293 40.9432 4.798 41.1237 4.3405C41.3042 3.883 41.5546 3.4845 41.875 3.1455C42.1981 2.80466 42.5888 2.53288 43.0227 2.347C43.4673 2.1535 43.9537 2.05675 44.4817 2.05675C44.6954 2.05675 44.8906 2.0875 45.0672 2.14875C45.2377 2.207 45.4001 2.28612 45.5506 2.38425C45.6963 2.48 45.8302 2.58825 45.9526 2.70875C46.075 2.8295 46.1904 2.94725 46.2991 3.06225V0.4365C46.2991 0.314 46.3371 0.21075 46.4127 0.1265C46.4887 0.042 46.602 0 46.7536 0H48.064C48.1147 0 48.168 0.0105 48.2242 0.0315C48.2808 0.05275 48.3322 0.08225 48.3788 0.12075C48.4252 0.159 48.4633 0.205 48.4924 0.2585C48.5213 0.31225 48.536 0.3715 48.536 0.4365V9.02575C48.536 9.32075 48.3788 9.46825 48.064 9.46825H46.9224C46.8448 9.46825 46.7845 9.45825 46.7419 9.43925C46.6997 9.4205 46.6628 9.39193 46.6342 9.356C46.6017 9.31384 46.5753 9.26749 46.5556 9.21825C46.5281 9.15339 46.4989 9.0892 46.4682 9.02575L46.2991 8.5775H46.2994ZM42.9497 5.8255C42.9478 6.0671 42.9882 6.30722 43.0691 6.53525C43.1489 6.75525 43.2625 6.946 43.41 7.10675C43.5593 7.2688 43.7407 7.39882 43.9431 7.48875C44.1509 7.58275 44.3808 7.6295 44.6333 7.6295C44.8817 7.6295 45.1156 7.5855 45.3351 7.4975C45.5484 7.4133 45.7433 7.28938 45.909 7.1325C46.0734 6.97538 46.2067 6.78936 46.3019 6.584C46.401 6.37325 46.4565 6.14725 46.4682 5.906V5.8255C46.469 5.58508 46.4215 5.34689 46.3283 5.12475C46.238 4.90698 46.1065 4.70812 45.9409 4.53875C45.775 4.36958 45.5771 4.23397 45.3585 4.1395C45.1299 4.04076 44.8828 3.99083 44.6333 3.993C44.3808 3.993 44.1507 4.04175 43.9431 4.1395C43.7352 4.237 43.5575 4.37025 43.41 4.53875C43.2601 4.71124 43.1444 4.91004 43.0691 5.12475C42.9891 5.3499 42.9488 5.58692 42.95 5.8255H42.9497ZM50.0857 0.44225C50.0857 0.31975 50.1167 0.2165 50.1788 0.13225C50.2411 0.04775 50.3478 0.00575 50.4991 0.00575H51.9262C51.9652 0.00575 52.006 0.01625 52.0486 0.03725C52.0934 0.0598968 52.1338 0.0901032 52.168 0.1265C52.205 0.16475 52.2359 0.21075 52.2613 0.26425C52.2866 0.318 52.2993 0.37725 52.2993 0.44225V9.02575C52.2993 9.17125 52.2575 9.28125 52.1738 9.356C52.0904 9.43075 51.9827 9.468 51.8507 9.468H50.4991C50.3478 9.468 50.2411 9.4305 50.1788 9.356C50.1167 9.28125 50.0857 9.171 50.0857 9.02575V0.44225ZM59.8951 8.59475C59.5574 8.90248 59.1669 9.14856 58.7418 9.3215C58.3114 9.49645 57.85 9.58534 57.3845 9.583C56.8522 9.583 56.3495 9.48725 55.8758 9.2955C55.4128 9.11092 54.9897 8.84093 54.6292 8.5C54.2701 8.15844 53.9814 7.75165 53.7788 7.302C53.5689 6.8425 53.4643 6.34275 53.4643 5.8025C53.4643 5.4655 53.5058 5.139 53.5895 4.823C53.6703 4.51382 53.7897 4.21571 53.9448 3.9355C54.0982 3.6597 54.2861 3.40396 54.504 3.17425C54.7213 2.94416 54.9692 2.7441 55.2408 2.5795C55.5172 2.41279 55.815 2.28331 56.1262 2.1945C56.4537 2.10139 56.793 2.055 57.1338 2.05675C57.4562 2.05675 57.7687 2.099 58.0716 2.18325C58.3745 2.2675 58.6592 2.38625 58.9251 2.53925C59.1912 2.6925 59.4345 2.8765 59.6561 3.091C59.8745 3.30193 60.0662 3.53824 60.2269 3.79475C60.3862 4.0494 60.5106 4.32369 60.597 4.6105C60.6842 4.89975 60.728 5.1975 60.728 5.50375C60.728 5.703 60.725 5.86575 60.7191 5.99225C60.7133 6.1185 60.6831 6.21925 60.6289 6.29375C60.5744 6.36875 60.4844 6.42025 60.3579 6.44875C60.2317 6.47775 60.0462 6.492 59.8018 6.492H55.6079C55.6467 6.737 55.7252 6.942 55.8436 7.107C55.9532 7.26318 56.0927 7.39675 56.2542 7.50025C56.4096 7.598 56.5746 7.66775 56.7495 7.71025C56.9114 7.75069 57.0776 7.77185 57.2445 7.77325C57.3845 7.77325 57.5279 7.75875 57.6754 7.73025C57.8208 7.70211 57.964 7.66368 58.1038 7.61525C58.2346 7.57044 58.3612 7.51465 58.4822 7.4485C58.5968 7.3855 58.6891 7.31925 58.759 7.2505C58.8211 7.2005 58.8746 7.16325 58.9192 7.13825C58.9638 7.11325 59.0115 7.101 59.0619 7.101C59.1126 7.101 59.1638 7.1185 59.2166 7.15275C59.2804 7.19678 59.3398 7.24676 59.394 7.302L60.0114 7.9915C60.054 8.0415 60.0814 8.0865 60.0931 8.1265C60.1047 8.16675 60.1106 8.208 60.1106 8.25C60.1106 8.32675 60.089 8.39275 60.0464 8.44825C60.0034 8.50409 59.9523 8.55344 59.8949 8.59475H59.8951ZM57.0932 3.809C56.9416 3.809 56.7951 3.83875 56.6534 3.898C56.5096 3.95855 56.3752 4.03885 56.2542 4.1365C56.13 4.236 56.0185 4.349 55.9194 4.4755C55.8248 4.59477 55.7437 4.72387 55.6776 4.8605H58.6541C58.576 4.71646 58.4875 4.57818 58.3892 4.44675C58.2958 4.32205 58.1861 4.21001 58.063 4.1135C57.9371 4.01586 57.7952 3.94011 57.6435 3.8895C57.4864 3.83575 57.3028 3.809 57.0932 3.809Z" fill="white"/>
</svg>
